# xmcd
#
# Track frame offsets:
#        150
#        21425
#        43295
#        63760
#        83510
#
# Disc length: 1448 seconds
#
# Revision: 0
# Processed by: cddbd v1.5.1PL0 Copyright (c) Steve Scherf et al.
# Submitted via: ExactAudioCopy v0.95b2
#
DISCID=3705a605
DTITLE=Poison Girlfriend - Mr. Polygot Remix
DYEAR=1993
DGENRE=Electronic
TTITLE0=Mister Polygot Radio Reconstruction Mix
TTITLE1=Dreamer's Ball
TTITLE2=Dreamer's Ball Hysteric Ball Mix
TTITLE3=Heidi
TTITLE4=It's Impossible
EXTD=
EXTT0=
EXTT1=
EXTT2=
EXTT3=
EXTT4=
PLAYORDER=
